<svg xmlns="http://www.w3.org/2000/svg" xmlns:xlink="http://www.w3.org/1999/xlink" width="1366" zoomAndPan="magnify" viewBox="0 0 1024.5 576" height="768" preserveAspectRatio="xMidYMid meet" version="1.0"><defs><g/><clipPath id="7a063199e1"><path d="M 0 0.140625 L 1024 0.140625 L 1024 575.859375 L 0 575.859375 Z M 0 0.140625 " clip-rule="nonzero"/></clipPath></defs><g clip-path="url(#7a063199e1)"><path fill="#ffffff" d="M 0 0.140625 L 1024 0.140625 L 1024 575.859375 L 0 575.859375 Z M 0 0.140625 " fill-opacity="1" fill-rule="nonzero"/><path fill="#000000" d="M 0 0.140625 L 1024 0.140625 L 1024 575.859375 L 0 575.859375 Z M 0 0.140625 " fill-opacity="1" fill-rule="nonzero"/></g><g fill="#ffffff" fill-opacity="1"><g transform="translate(491.480359, 292.497813)"><g><path d="M 15.609375 -12.28125 L 15.140625 -12.28125 C 15.234375 -12.601562 15.28125 -12.921875 15.28125 -13.234375 C 15.28125 -14.660156 14.265625 -15.375 12.234375 -15.375 L 9.140625 -15.375 L 7.265625 -8.921875 L 8.953125 -8.921875 C 9.773438 -8.921875 10.46875 -9.085938 11.03125 -9.421875 C 11.59375 -9.753906 12.050781 -10.367188 12.40625 -11.265625 L 12.875 -11.265625 L 11.203125 -5.46875 L 10.75 -5.46875 C 10.851562 -5.863281 10.90625 -6.234375 10.90625 -6.578125 C 10.90625 -7.148438 10.734375 -7.546875 10.390625 -7.765625 C 10.046875 -7.992188 9.554688 -8.109375 8.921875 -8.109375 L 7.046875 -8.109375 L 5.703125 -3.453125 C 5.453125 -2.523438 5.328125 -1.925781 5.328125 -1.65625 C 5.328125 -1.15625 5.484375 -0.828125 5.796875 -0.671875 C 6.109375 -0.515625 6.535156 -0.4375 7.078125 -0.4375 L 7.75 -0.4375 L 7.625 0 L 0.1875 0 L 0.3125 -0.4375 C 0.9375 -0.4375 1.425781 -0.535156 1.78125 -0.734375 C 2.144531 -0.929688 2.425781 -1.226562 2.625 -1.625 C 2.820312 -2.03125 3.035156 -2.609375 3.265625 -3.359375 L 5.96875 -12.78125 C 5.988281 -12.832031 6.054688 -13.070312 6.171875 -13.5 C 6.296875 -13.9375 6.359375 -14.296875 6.359375 -14.578125 C 6.359375 -14.960938 6.222656 -15.242188 5.953125 -15.421875 C 5.691406 -15.609375 5.296875 -15.71875 4.765625 -15.75 L 4.515625 -15.75 L 4.625 -16.1875 L 16.71875 -16.1875 Z M 15.609375 -12.28125 "/></g></g></g><g fill="#ffffff" fill-opacity="1"><g transform="translate(505.369606, 292.497813)"><g><path d="M 11.15625 -15.75 C 10.5625 -15.75 10.082031 -15.640625 9.71875 -15.421875 C 9.363281 -15.210938 9.082031 -14.90625 8.875 -14.5 C 8.664062 -14.101562 8.46875 -13.554688 8.28125 -12.859375 L 5.5625 -3.359375 C 5.53125 -3.265625 5.457031 -3.03125 5.34375 -2.65625 C 5.238281 -2.289062 5.1875 -1.957031 5.1875 -1.65625 C 5.1875 -1.1875 5.34375 -0.863281 5.65625 -0.6875 C 5.976562 -0.519531 6.410156 -0.4375 6.953125 -0.4375 L 6.828125 0 L 0.3125 0 L 0.3125 -0.4375 C 0.96875 -0.445312 1.46875 -0.5625 1.8125 -0.78125 C 2.15625 -1.007812 2.410156 -1.316406 2.578125 -1.703125 C 2.742188 -2.097656 2.957031 -2.753906 3.21875 -3.671875 L 5.859375 -12.859375 C 6.109375 -13.765625 6.234375 -14.332031 6.234375 -14.5625 C 6.234375 -15.050781 6.050781 -15.367188 5.6875 -15.515625 C 5.332031 -15.671875 4.859375 -15.75 4.265625 -15.75 L 4.390625 -16.1875 L 11.265625 -16.1875 Z M 11.15625 -15.75 "/></g></g></g><g fill="#ffffff" fill-opacity="1"><g transform="translate(514.005408, 292.497813)"><g><path d="M 13.5 -3.890625 L 13.546875 -3.890625 L 16.09375 -12.828125 C 16.3125 -13.679688 16.421875 -14.242188 16.421875 -14.515625 C 16.421875 -14.941406 16.296875 -15.253906 16.046875 -15.453125 C 15.804688 -15.648438 15.503906 -15.75 15.140625 -15.75 L 14.4375 -15.75 L 14.5625 -16.1875 L 20.03125 -16.1875 L 20.03125 -15.75 C 19.3125 -15.75 18.765625 -15.648438 18.390625 -15.453125 C 18.023438 -15.253906 17.75 -14.953125 17.5625 -14.546875 C 17.382812 -14.148438 17.164062 -13.503906 16.90625 -12.609375 L 13.1875 0.390625 L 12.828125 0.390625 L 7.296875 -13.40625 L 7.25 -13.40625 L 4.4375 -3.5 C 4.28125 -2.9375 4.164062 -2.519531 4.09375 -2.25 C 4.03125 -1.976562 4 -1.78125 4 -1.65625 C 4 -1.175781 4.171875 -0.851562 4.515625 -0.6875 C 4.859375 -0.519531 5.3125 -0.4375 5.875 -0.4375 L 5.75 0 L 0.4375 0 L 0.4375 -0.4375 L 0.765625 -0.4375 C 1.566406 -0.4375 2.15625 -0.675781 2.53125 -1.15625 C 2.90625 -1.644531 3.222656 -2.347656 3.484375 -3.265625 L 6.71875 -14.609375 C 6.507812 -15.085938 6.179688 -15.394531 5.734375 -15.53125 C 5.285156 -15.675781 4.738281 -15.75 4.09375 -15.75 L 4.21875 -16.1875 L 8.59375 -16.1875 Z M 13.5 -3.890625 "/></g></g></g></svg>